<svg xmlns="http://www.w3.org/2000/svg" xmlns:xlink="http://www.w3.org/1999/xlink" width="64" zoomAndPan="magnify" viewBox="0 0 48 48" height="64" preserveAspectRatio="xMidYMid meet" version="1.0"><defs><g/><clipPath id="55c4375a35"><path d="M 0.488281 0 L 47.507812 0 L 47.507812 47.019531 L 0.488281 47.019531 Z M 0.488281 0 " clip-rule="nonzero"/></clipPath></defs><g clip-path="url(#55c4375a35)"><path fill="#ffffff" d="M 0.488281 0 L 47.511719 0 L 47.511719 47.019531 L 0.488281 47.019531 Z M 0.488281 0 " fill-opacity="1" fill-rule="nonzero"/><path fill="#155dfc" d="M 0.488281 0 L 47.511719 0 L 47.511719 47.019531 L 0.488281 47.019531 Z M 0.488281 0 " fill-opacity="1" fill-rule="nonzero"/></g><g fill="#ffffff" fill-opacity="1"><g transform="translate(2.843112, 36.367348)"><g><path d="M 0.359375 0 L 7.125 -25.390625 L 14.171875 -25.390625 L 20.8125 0 L 15.453125 0 L 14.109375 -5.8125 L 7.015625 -5.8125 L 5.671875 0 Z M 7.96875 -9.9375 L 13.125 -9.9375 L 11.171875 -18.296875 C 11.109375 -18.648438 11.039062 -19.03125 10.96875 -19.4375 C 10.894531 -19.851562 10.835938 -20.25 10.796875 -20.625 C 10.742188 -21.03125 10.695312 -21.441406 10.65625 -21.859375 L 10.4375 -21.859375 C 10.394531 -21.441406 10.335938 -21.03125 10.265625 -20.625 C 10.210938 -20.25 10.15625 -19.851562 10.09375 -19.4375 C 10.039062 -19.03125 9.96875 -18.648438 9.875 -18.296875 Z M 7.96875 -9.9375 "/></g></g></g><g fill="#ffffff" fill-opacity="1"><g transform="translate(23.995403, 36.367348)"><g><path d="M 10.75 -25.75 C 12.070312 -25.75 13.269531 -25.554688 14.34375 -25.171875 C 15.425781 -24.796875 16.351562 -24.257812 17.125 -23.5625 C 17.90625 -22.875 18.507812 -22.039062 18.9375 -21.0625 C 19.363281 -20.09375 19.578125 -19.007812 19.578125 -17.8125 L 14.28125 -17.8125 C 14.28125 -18.800781 13.960938 -19.578125 13.328125 -20.140625 C 12.691406 -20.703125 11.832031 -20.984375 10.75 -20.984375 C 9.644531 -20.984375 8.769531 -20.703125 8.125 -20.140625 C 7.476562 -19.578125 7.15625 -18.800781 7.15625 -17.8125 L 7.15625 -7.578125 C 7.15625 -6.585938 7.46875 -5.8125 8.09375 -5.25 C 8.71875 -4.6875 9.59375 -4.40625 10.71875 -4.40625 C 11.820312 -4.40625 12.691406 -4.695312 13.328125 -5.28125 C 13.960938 -5.875 14.28125 -6.640625 14.28125 -7.578125 L 19.578125 -7.578125 C 19.578125 -6.378906 19.363281 -5.289062 18.9375 -4.3125 C 18.507812 -3.34375 17.90625 -2.507812 17.125 -1.8125 C 16.351562 -1.125 15.425781 -0.585938 14.34375 -0.203125 C 13.269531 0.171875 12.0625 0.359375 10.71875 0.359375 C 9.375 0.359375 8.160156 0.171875 7.078125 -0.203125 C 6.003906 -0.585938 5.078125 -1.125 4.296875 -1.8125 C 3.523438 -2.507812 2.925781 -3.34375 2.5 -4.3125 C 2.082031 -5.289062 1.875 -6.378906 1.875 -7.578125 L 1.875 -17.8125 C 1.875 -19.007812 2.082031 -20.09375 2.5 -21.0625 C 2.925781 -22.039062 3.523438 -22.875 4.296875 -23.5625 C 5.078125 -24.257812 6.015625 -24.796875 7.109375 -25.171875 C 8.203125 -25.554688 9.414062 -25.75 10.75 -25.75 Z M 10.75 -25.75 "/></g></g></g></svg>