<svg xmlns="http://www.w3.org/2000/svg" xmlns:xlink="http://www.w3.org/1999/xlink" width="64" zoomAndPan="magnify" viewBox="0 0 48 48" height="64" preserveAspectRatio="xMidYMid meet" version="1.0"><defs><g/><clipPath id="409936856f"><path d="M 0.488281 0 L 47.507812 0 L 47.507812 47.019531 L 0.488281 47.019531 Z M 0.488281 0 " clip-rule="nonzero"/></clipPath></defs><g clip-path="url(#409936856f)"><path fill="#ffffff" d="M 0.488281 0 L 47.511719 0 L 47.511719 47.019531 L 0.488281 47.019531 Z M 0.488281 0 " fill-opacity="1" fill-rule="nonzero"/><path fill="#155dfc" d="M 0.488281 0 L 47.511719 0 L 47.511719 47.019531 L 0.488281 47.019531 Z M 0.488281 0 " fill-opacity="1" fill-rule="nonzero"/></g><g fill="#ffffff" fill-opacity="1"><g transform="translate(1.76977, 33.428573)"><g><path d="M 14.75 -3.375 L 7.40625 -3.375 L 6.28125 0 L 0.234375 0 L 7.78125 -20.703125 L 14.421875 -20.703125 L 21.9375 0 L 15.859375 0 Z M 13.3125 -7.78125 L 11.078125 -14.484375 L 8.875 -7.78125 Z M 13.3125 -7.78125 "/></g></g></g><g fill="#ffffff" fill-opacity="1"><g transform="translate(23.948912, 33.428573)"><g><path d="M 0.9375 -10.40625 C 0.9375 -12.4375 1.363281 -14.25 2.21875 -15.84375 C 3.070312 -17.4375 4.28125 -18.679688 5.84375 -19.578125 C 7.414062 -20.472656 9.21875 -20.921875 11.25 -20.921875 C 13.832031 -20.921875 16.003906 -20.226562 17.765625 -18.84375 C 19.535156 -17.457031 20.671875 -15.582031 21.171875 -13.21875 L 14.984375 -13.21875 C 14.609375 -14 14.09375 -14.59375 13.4375 -15 C 12.78125 -15.414062 12.019531 -15.625 11.15625 -15.625 C 9.832031 -15.625 8.769531 -15.148438 7.96875 -14.203125 C 7.175781 -13.253906 6.78125 -11.988281 6.78125 -10.40625 C 6.78125 -8.789062 7.175781 -7.507812 7.96875 -6.5625 C 8.769531 -5.613281 9.832031 -5.140625 11.15625 -5.140625 C 12.019531 -5.140625 12.78125 -5.34375 13.4375 -5.75 C 14.09375 -6.164062 14.609375 -6.765625 14.984375 -7.546875 L 21.171875 -7.546875 C 20.671875 -5.179688 19.535156 -3.304688 17.765625 -1.921875 C 16.003906 -0.546875 13.832031 0.140625 11.25 0.140625 C 9.21875 0.140625 7.414062 -0.300781 5.84375 -1.1875 C 4.28125 -2.082031 3.070312 -3.328125 2.21875 -4.921875 C 1.363281 -6.515625 0.9375 -8.34375 0.9375 -10.40625 Z M 0.9375 -10.40625 "/></g></g></g></svg>