<svg xmlns="http://www.w3.org/2000/svg" xmlns:xlink="http://www.w3.org/1999/xlink" width="64" zoomAndPan="magnify" viewBox="0 0 48 48" height="64" preserveAspectRatio="xMidYMid meet" version="1.0"><defs><clipPath id="22034aea22"><path d="M 0.488281 0 L 47.507812 0 L 47.507812 47.019531 L 0.488281 47.019531 Z M 0.488281 0 " clip-rule="nonzero"/></clipPath><clipPath id="c3c32681b4"><path d="M 5.34375 6.546875 L 42.8125 6.546875 L 42.8125 40.34375 L 5.34375 40.34375 Z M 5.34375 6.546875 " clip-rule="nonzero"/></clipPath></defs><g clip-path="url(#22034aea22)"><path fill="#ffffff" d="M 0.488281 0 L 47.511719 0 L 47.511719 47.019531 L 0.488281 47.019531 Z M 0.488281 0 " fill-opacity="1" fill-rule="nonzero"/><path fill="#155dfc" d="M 0.488281 0 L 47.511719 0 L 47.511719 47.019531 L 0.488281 47.019531 Z M 0.488281 0 " fill-opacity="1" fill-rule="nonzero"/></g><path fill="#ffffff" d="M 18.914062 22.839844 C 18.804688 22.734375 18.664062 22.679688 18.480469 22.679688 C 18.300781 22.679688 18.152344 22.734375 18.035156 22.839844 C 17.917969 22.941406 17.832031 23.0625 17.78125 23.207031 C 17.726562 23.351562 17.695312 23.484375 17.683594 23.609375 C 17.785156 23.582031 17.882812 23.558594 17.980469 23.53125 C 18.082031 23.503906 18.246094 23.488281 18.480469 23.488281 C 18.679688 23.488281 18.832031 23.503906 18.941406 23.53125 C 19.058594 23.546875 19.171875 23.574219 19.28125 23.609375 C 19.28125 23.492188 19.25 23.363281 19.183594 23.21875 C 19.121094 23.074219 19.03125 22.949219 18.914062 22.839844 Z M 18.914062 22.839844 " fill-opacity="1" fill-rule="nonzero"/><path fill="#ffffff" d="M 34.605469 21.234375 C 34.328125 20.71875 33.972656 20.253906 33.539062 19.839844 C 33.117188 19.425781 32.605469 19.097656 32.011719 18.855469 C 31.417969 18.601562 30.738281 18.476562 29.96875 18.476562 C 29.230469 18.476562 28.570312 18.570312 27.984375 18.757812 C 27.398438 18.9375 26.878906 19.164062 26.429688 19.433594 C 25.988281 19.707031 25.605469 19.976562 25.28125 20.246094 C 24.957031 20.515625 24.6875 20.746094 24.46875 20.933594 C 24.261719 21.117188 24.105469 21.207031 23.996094 21.207031 C 23.886719 21.207031 23.726562 21.117188 23.511719 20.933594 C 23.304688 20.746094 23.035156 20.515625 22.710938 20.246094 C 22.398438 19.976562 22.015625 19.707031 21.5625 19.433594 C 21.113281 19.164062 20.59375 18.9375 20.007812 18.757812 C 19.421875 18.570312 18.765625 18.476562 18.035156 18.476562 C 17.269531 18.476562 16.589844 18.601562 15.996094 18.855469 C 15.402344 19.097656 14.886719 19.425781 14.453125 19.839844 C 14.023438 20.253906 13.667969 20.71875 13.386719 21.234375 C 13.117188 21.746094 12.914062 22.273438 12.777344 22.8125 C 12.644531 23.355469 12.574219 23.867188 12.574219 24.355469 C 12.574219 24.984375 12.664062 25.546875 12.847656 26.042969 C 13.035156 26.53125 13.277344 26.957031 13.574219 27.328125 C 13.882812 27.699219 14.210938 28.011719 14.5625 28.273438 C 14.914062 28.527344 15.257812 28.738281 15.589844 28.910156 C 15.933594 29.070312 16.234375 29.199219 16.496094 29.289062 C 16.757812 29.378906 16.941406 29.441406 17.050781 29.476562 C 17.5 29.601562 17.796875 29.734375 17.941406 29.867188 C 18.09375 29.996094 18.171875 30.214844 18.171875 30.53125 C 18.171875 30.773438 18.148438 31.089844 18.105469 31.476562 C 18.066406 31.863281 18.027344 32.285156 17.980469 32.734375 C 17.945312 33.183594 17.929688 33.640625 17.929688 34.097656 C 17.929688 34.214844 17.933594 34.324219 17.941406 34.425781 C 17.949219 34.53125 17.96875 34.636719 17.996094 34.734375 L 19.226562 34.925781 C 19.703125 34.996094 20.113281 35.101562 20.457031 35.234375 C 20.796875 35.378906 21.105469 35.535156 21.375 35.707031 C 21.652344 35.878906 21.917969 36.042969 22.171875 36.195312 C 22.433594 36.355469 22.707031 36.488281 22.996094 36.585938 C 23.285156 36.683594 23.617188 36.734375 23.996094 36.734375 C 24.375 36.734375 24.707031 36.683594 24.996094 36.585938 C 25.285156 36.488281 25.554688 36.355469 25.808594 36.195312 C 26.070312 36.042969 26.335938 35.878906 26.605469 35.707031 C 26.882812 35.535156 27.195312 35.378906 27.539062 35.234375 C 27.890625 35.101562 28.300781 34.996094 28.769531 34.925781 L 29.996094 34.734375 C 30.023438 34.636719 30.042969 34.53125 30.050781 34.425781 C 30.0625 34.324219 30.066406 34.214844 30.066406 34.097656 C 30.066406 33.640625 30.046875 33.183594 30.011719 32.734375 C 29.976562 32.285156 29.933594 31.863281 29.890625 31.476562 C 29.851562 31.089844 29.835938 30.773438 29.835938 30.53125 C 29.835938 30.214844 29.90625 29.996094 30.050781 29.867188 C 30.203125 29.734375 30.503906 29.601562 30.945312 29.476562 C 31.050781 29.441406 31.230469 29.378906 31.484375 29.289062 C 31.746094 29.199219 32.042969 29.070312 32.375 28.910156 C 32.71875 28.738281 33.066406 28.527344 33.417969 28.273438 C 33.777344 28.011719 34.105469 27.703125 34.402344 27.339844 C 34.710938 26.972656 34.953125 26.539062 35.132812 26.042969 C 35.324219 25.546875 35.417969 24.984375 35.417969 24.355469 C 35.417969 23.867188 35.351562 23.355469 35.214844 22.8125 C 35.089844 22.273438 34.886719 21.746094 34.605469 21.234375 Z M 24.550781 28.4375 C 24.648438 28.21875 24.785156 28.074219 24.957031 28.003906 C 25.128906 27.921875 25.273438 27.90625 25.390625 27.949219 C 25.53125 28.011719 25.605469 28.148438 25.605469 28.355469 C 25.613281 28.5625 25.574219 28.757812 25.484375 28.9375 C 25.382812 29.132812 25.246094 29.28125 25.0625 29.382812 C 24.894531 29.480469 24.738281 29.496094 24.605469 29.421875 C 24.480469 29.351562 24.414062 29.21875 24.414062 29.03125 C 24.414062 28.832031 24.460938 28.632812 24.550781 28.4375 Z M 22.617188 27.949219 C 22.734375 27.90625 22.875 27.921875 23.035156 28.003906 C 23.207031 28.074219 23.347656 28.222656 23.457031 28.449219 C 23.554688 28.648438 23.601562 28.839844 23.589844 29.03125 C 23.589844 29.21875 23.527344 29.351562 23.402344 29.421875 C 23.265625 29.484375 23.109375 29.472656 22.929688 29.382812 C 22.757812 29.28125 22.621094 29.132812 22.523438 28.9375 C 22.433594 28.757812 22.386719 28.5625 22.386719 28.355469 C 22.398438 28.148438 22.472656 28.011719 22.617188 27.949219 Z M 19.902344 25.9375 C 19.757812 26.339844 19.558594 26.664062 19.308594 26.910156 C 19.0625 27.152344 18.789062 27.273438 18.480469 27.273438 C 18.183594 27.273438 17.910156 27.152344 17.65625 26.910156 C 17.414062 26.664062 17.222656 26.347656 17.078125 25.949219 C 16.933594 25.542969 16.859375 25.101562 16.859375 24.625 C 16.859375 24.136719 16.933594 23.703125 17.078125 23.3125 C 17.222656 22.917969 17.414062 22.601562 17.65625 22.367188 C 17.910156 22.132812 18.183594 22.015625 18.480469 22.015625 C 18.789062 22.015625 19.0625 22.132812 19.308594 22.367188 C 19.558594 22.601562 19.757812 22.917969 19.902344 23.3125 C 20.054688 23.703125 20.132812 24.136719 20.132812 24.625 C 20.132812 25.09375 20.054688 25.53125 19.902344 25.9375 Z M 27.441406 32.71875 C 27.234375 32.980469 26.953125 33.238281 26.589844 33.492188 C 26.242188 33.753906 25.839844 33.96875 25.390625 34.140625 C 24.945312 34.3125 24.484375 34.398438 23.996094 34.398438 C 23.519531 34.398438 23.054688 34.3125 22.605469 34.140625 C 22.164062 33.96875 21.761719 33.753906 21.402344 33.492188 C 21.050781 33.238281 20.769531 32.980469 20.5625 32.71875 C 20.355469 32.449219 20.253906 32.226562 20.253906 32.042969 C 20.253906 31.902344 20.285156 31.804688 20.347656 31.761719 C 20.417969 31.707031 20.523438 31.679688 20.660156 31.679688 C 20.722656 31.679688 20.90625 31.703125 21.210938 31.746094 C 21.527344 31.785156 21.925781 31.824219 22.402344 31.867188 C 22.886719 31.90625 23.421875 31.921875 23.996094 31.921875 C 24.582031 31.921875 25.113281 31.90625 25.589844 31.867188 C 26.078125 31.824219 26.472656 31.785156 26.78125 31.746094 C 27.097656 31.703125 27.28125 31.679688 27.335938 31.679688 C 27.480469 31.679688 27.582031 31.707031 27.644531 31.761719 C 27.71875 31.804688 27.753906 31.902344 27.753906 32.042969 C 27.753906 32.226562 27.652344 32.449219 27.441406 32.71875 Z M 30.929688 25.949219 C 30.785156 26.347656 30.59375 26.664062 30.347656 26.910156 C 30.105469 27.152344 29.832031 27.273438 29.523438 27.273438 C 29.21875 27.273438 28.9375 27.152344 28.6875 26.910156 C 28.441406 26.664062 28.246094 26.339844 28.09375 25.9375 C 27.949219 25.53125 27.875 25.09375 27.875 24.625 C 27.875 24.136719 27.949219 23.703125 28.09375 23.3125 C 28.246094 22.917969 28.441406 22.601562 28.6875 22.367188 C 28.9375 22.132812 29.21875 22.015625 29.523438 22.015625 C 29.832031 22.015625 30.105469 22.132812 30.347656 22.367188 C 30.59375 22.601562 30.785156 22.917969 30.929688 23.3125 C 31.074219 23.703125 31.144531 24.136719 31.144531 24.625 C 31.144531 25.101562 31.074219 25.542969 30.929688 25.949219 Z M 30.929688 25.949219 " fill-opacity="1" fill-rule="nonzero"/><path fill="#ffffff" d="M 12.941406 15.097656 L 12.804688 15.097656 C 12.183594 15.097656 11.617188 15.25 11.101562 15.554688 C 10.597656 15.851562 10.191406 16.285156 9.886719 16.851562 C 9.578125 17.421875 9.425781 18.109375 9.425781 18.921875 C 9.425781 19.640625 9.554688 20.332031 9.804688 20.988281 C 10.058594 21.636719 10.390625 22.230469 10.804688 22.773438 C 10.996094 22.230469 11.1875 21.765625 11.386719 21.367188 C 11.585938 20.972656 11.75 20.640625 11.886719 20.378906 C 12.023438 20.109375 12.089844 19.90625 12.089844 19.773438 L 12.089844 18.664062 C 12.089844 18.070312 12.175781 17.46875 12.347656 16.867188 C 12.515625 16.261719 12.757812 15.671875 13.0625 15.097656 Z M 12.941406 15.097656 " fill-opacity="1" fill-rule="nonzero"/><path fill="#ffffff" d="M 29.957031 22.839844 C 29.847656 22.734375 29.703125 22.679688 29.523438 22.679688 C 29.351562 22.679688 29.210938 22.734375 29.09375 22.839844 C 28.976562 22.949219 28.886719 23.074219 28.820312 23.21875 C 28.757812 23.363281 28.722656 23.492188 28.714844 23.609375 C 28.820312 23.574219 28.933594 23.546875 29.050781 23.53125 C 29.167969 23.503906 29.328125 23.488281 29.523438 23.488281 C 29.757812 23.488281 29.921875 23.503906 30.011719 23.53125 C 30.109375 23.558594 30.210938 23.582031 30.308594 23.609375 C 30.308594 23.492188 30.277344 23.363281 30.214844 23.21875 C 30.160156 23.074219 30.074219 22.949219 29.957031 22.839844 Z M 29.957031 22.839844 " fill-opacity="1" fill-rule="nonzero"/><path fill="#ffffff" d="M 36.878906 15.554688 C 36.371094 15.25 35.808594 15.097656 35.1875 15.097656 L 34.929688 15.097656 C 35.246094 15.671875 35.488281 16.261719 35.660156 16.867188 C 35.832031 17.46875 35.917969 18.070312 35.917969 18.664062 L 35.917969 19.773438 C 35.917969 19.90625 35.984375 20.109375 36.121094 20.382812 C 36.253906 20.640625 36.417969 20.972656 36.605469 21.367188 C 36.804688 21.765625 37 22.234375 37.1875 22.773438 C 37.613281 22.234375 37.945312 21.636719 38.1875 20.988281 C 38.441406 20.332031 38.566406 19.640625 38.566406 18.921875 C 38.566406 18.109375 38.414062 17.421875 38.105469 16.851562 C 37.800781 16.285156 37.390625 15.851562 36.878906 15.554688 Z M 36.878906 15.554688 " fill-opacity="1" fill-rule="nonzero"/><g clip-path="url(#c3c32681b4)"><path fill="#ffffff" d="M 42.0625 15.828125 C 41.707031 14.871094 41.195312 14.023438 40.535156 13.3125 C 39.871094 12.578125 39.066406 12.007812 38.152344 11.613281 C 37.246094 11.210938 36.25 11.007812 35.191406 11.007812 C 34.863281 11.007812 34.546875 11.027344 34.238281 11.066406 C 33.789062 10.621094 33.308594 10.195312 32.796875 9.792969 C 31.980469 9.144531 31.085938 8.570312 30.144531 8.09375 C 29.199219 7.609375 28.203125 7.230469 27.183594 6.964844 C 26.136719 6.6875 25.066406 6.546875 23.996094 6.546875 C 22.941406 6.546875 21.871094 6.6875 20.8125 6.964844 C 19.792969 7.230469 18.796875 7.609375 17.847656 8.09375 C 16.914062 8.574219 16.023438 9.144531 15.210938 9.789062 C 14.695312 10.1875 14.210938 10.617188 13.761719 11.066406 C 13.453125 11.027344 13.132812 11.007812 12.804688 11.007812 C 11.742188 11.007812 10.742188 11.210938 9.816406 11.621094 C 8.914062 12.019531 8.117188 12.597656 7.445312 13.328125 C 6.796875 14.039062 6.289062 14.886719 5.933594 15.84375 C 5.585938 16.78125 5.40625 17.808594 5.40625 18.894531 C 5.40625 19.996094 5.578125 21.058594 5.914062 22.0625 L 5.917969 22.085938 C 6.25 23.03125 6.683594 23.917969 7.210938 24.710938 C 7.542969 25.210938 7.894531 25.675781 8.257812 26.101562 C 8.25 26.316406 8.25 26.539062 8.25 26.761719 C 8.25 28.34375 8.441406 29.761719 8.824219 31.003906 C 9.226562 32.253906 9.796875 33.351562 10.515625 34.257812 C 11.230469 35.167969 12.066406 35.933594 12.996094 36.53125 C 13.890625 37.105469 14.855469 37.5625 15.871094 37.890625 C 16.835938 38.203125 17.824219 38.429688 18.820312 38.574219 C 19.027344 38.601562 19.195312 38.648438 19.324219 38.707031 C 19.554688 38.816406 19.773438 38.9375 19.984375 39.070312 C 20.289062 39.269531 20.601562 39.457031 20.914062 39.636719 C 21.320312 39.875 21.765625 40.070312 22.238281 40.21875 C 22.761719 40.386719 23.355469 40.472656 23.996094 40.472656 C 24.640625 40.472656 25.234375 40.386719 25.746094 40.222656 C 26.230469 40.074219 26.683594 39.878906 27.09375 39.636719 C 27.410156 39.457031 27.722656 39.265625 28.023438 39.066406 C 28.226562 38.933594 28.445312 38.8125 28.652344 38.714844 C 28.800781 38.648438 28.976562 38.601562 29.183594 38.570312 C 30.179688 38.429688 31.171875 38.203125 32.136719 37.890625 C 33.152344 37.5625 34.121094 37.105469 35.011719 36.53125 C 35.945312 35.933594 36.777344 35.167969 37.480469 34.253906 C 38.203125 33.339844 38.769531 32.246094 39.171875 31 C 39.5625 29.773438 39.761719 28.347656 39.761719 26.761719 C 39.761719 26.53125 39.757812 26.308594 39.746094 26.09375 C 40.109375 25.667969 40.457031 25.207031 40.785156 24.710938 C 41.316406 23.910156 41.746094 23.019531 42.0625 22.078125 C 42.410156 21.074219 42.585938 20.003906 42.585938 18.894531 C 42.585938 17.796875 42.410156 16.765625 42.0625 15.828125 Z M 40.269531 21.460938 C 40 22.265625 39.644531 23 39.203125 23.664062 C 38.761719 24.332031 38.289062 24.917969 37.78125 25.421875 C 37.835938 25.835938 37.863281 26.28125 37.863281 26.761719 C 37.863281 28.15625 37.695312 29.378906 37.363281 30.421875 C 37.03125 31.460938 36.570312 32.347656 35.984375 33.085938 C 35.410156 33.832031 34.742188 34.449219 33.984375 34.9375 C 33.226562 35.421875 32.417969 35.808594 31.550781 36.085938 C 30.6875 36.367188 29.808594 36.566406 28.917969 36.695312 C 28.527344 36.75 28.175781 36.847656 27.863281 36.992188 C 27.554688 37.136719 27.261719 37.296875 26.984375 37.476562 C 26.714844 37.660156 26.433594 37.828125 26.144531 37.992188 C 25.855469 38.164062 25.539062 38.300781 25.1875 38.410156 C 24.84375 38.519531 24.445312 38.574219 23.996094 38.574219 C 23.546875 38.574219 23.148438 38.519531 22.808594 38.410156 C 22.464844 38.300781 22.148438 38.164062 21.859375 37.992188 C 21.574219 37.828125 21.289062 37.660156 21.007812 37.476562 C 20.730469 37.296875 20.4375 37.136719 20.132812 36.992188 C 19.824219 36.847656 19.472656 36.75 19.078125 36.695312 C 18.195312 36.566406 17.320312 36.367188 16.453125 36.085938 C 15.589844 35.808594 14.777344 35.421875 14.023438 34.9375 C 13.265625 34.449219 12.59375 33.832031 12.007812 33.085938 C 11.421875 32.347656 10.964844 31.460938 10.628906 30.421875 C 10.304688 29.378906 10.144531 28.15625 10.144531 26.761719 C 10.144531 26.527344 10.148438 26.296875 10.15625 26.070312 C 10.175781 25.84375 10.191406 25.628906 10.210938 25.421875 C 9.707031 24.917969 9.234375 24.332031 8.792969 23.664062 C 8.351562 23 7.988281 22.265625 7.710938 21.460938 C 7.441406 20.652344 7.304688 19.796875 7.304688 18.894531 C 7.304688 18.027344 7.441406 17.230469 7.710938 16.5 C 7.980469 15.773438 8.359375 15.140625 8.84375 14.609375 C 9.339844 14.070312 9.921875 13.648438 10.589844 13.351562 C 11.265625 13.054688 12.003906 12.90625 12.804688 12.90625 C 13.398438 12.90625 13.941406 12.984375 14.425781 13.136719 C 14.996094 12.46875 15.644531 11.851562 16.375 11.285156 C 17.105469 10.707031 17.882812 10.207031 18.710938 9.785156 C 19.539062 9.359375 20.402344 9.03125 21.292969 8.796875 C 22.195312 8.5625 23.09375 8.445312 23.996094 8.445312 C 24.90625 8.445312 25.808594 8.5625 26.699219 8.796875 C 27.59375 9.03125 28.453125 9.359375 29.28125 9.785156 C 30.121094 10.207031 30.898438 10.707031 31.621094 11.285156 C 32.347656 11.851562 33.003906 12.46875 33.578125 13.136719 C 34.066406 12.984375 34.601562 12.90625 35.1875 12.90625 C 35.988281 12.90625 36.722656 13.054688 37.390625 13.351562 C 38.066406 13.640625 38.648438 14.054688 39.132812 14.597656 C 39.628906 15.128906 40.011719 15.757812 40.28125 16.488281 C 40.554688 17.21875 40.6875 18.019531 40.6875 18.894531 C 40.6875 19.796875 40.550781 20.652344 40.269531 21.460938 Z M 40.269531 21.460938 " fill-opacity="1" fill-rule="nonzero"/></g></svg>
