<svg xmlns="http://www.w3.org/2000/svg" xmlns:xlink="http://www.w3.org/1999/xlink" width="64" zoomAndPan="magnify" viewBox="0 0 48 48" height="64" preserveAspectRatio="xMidYMid meet" version="1.0"><defs><clipPath id="180ae9b7bd"><path d="M 0.488281 0 L 47.507812 0 L 47.507812 47.019531 L 0.488281 47.019531 Z M 0.488281 0 " clip-rule="nonzero"/></clipPath><clipPath id="b08d24b888"><path d="M 5.191406 6.546875 L 42.660156 6.546875 L 42.660156 40.34375 L 5.191406 40.34375 Z M 5.191406 6.546875 " clip-rule="nonzero"/></clipPath></defs><g clip-path="url(#180ae9b7bd)"><path fill="#ffffff" d="M 0.488281 0 L 47.511719 0 L 47.511719 47.019531 L 0.488281 47.019531 Z M 0.488281 0 " fill-opacity="1" fill-rule="nonzero"/><path fill="#155dfc" d="M 0.488281 0 L 47.511719 0 L 47.511719 47.019531 L 0.488281 47.019531 Z M 0.488281 0 " fill-opacity="1" fill-rule="nonzero"/></g><g clip-path="url(#b08d24b888)"><path fill="#ffffff" d="M 23.96875 40.390625 C 23.460938 40.390625 23.015625 40.332031 22.632812 40.210938 C 22.246094 40.089844 21.894531 39.929688 21.570312 39.738281 C 21.246094 39.558594 20.925781 39.363281 20.613281 39.164062 C 20.300781 38.960938 19.96875 38.777344 19.625 38.617188 C 19.28125 38.453125 18.886719 38.34375 18.441406 38.28125 C 17.449219 38.140625 16.46875 37.914062 15.496094 37.597656 C 14.523438 37.285156 13.613281 36.855469 12.761719 36.308594 C 11.914062 35.761719 11.160156 35.066406 10.5 34.226562 C 9.84375 33.398438 9.328125 32.402344 8.953125 31.238281 C 8.585938 30.0625 8.40625 28.691406 8.40625 27.121094 C 8.40625 26.859375 8.410156 26.601562 8.421875 26.347656 C 8.441406 26.09375 8.460938 25.851562 8.480469 25.617188 C 7.914062 25.050781 7.382812 24.394531 6.886719 23.644531 C 6.390625 22.894531 5.988281 22.070312 5.671875 21.171875 C 5.367188 20.257812 5.21875 19.296875 5.21875 18.285156 C 5.21875 17.3125 5.367188 16.417969 5.671875 15.597656 C 5.976562 14.777344 6.402344 14.070312 6.949219 13.472656 C 7.503906 12.863281 8.15625 12.394531 8.90625 12.058594 C 9.664062 11.726562 10.496094 11.558594 11.398438 11.558594 C 12.066406 11.558594 12.671875 11.644531 13.21875 11.816406 C 13.855469 11.066406 14.585938 10.375 15.40625 9.738281 C 16.226562 9.089844 17.101562 8.527344 18.03125 8.050781 C 18.964844 7.574219 19.929688 7.207031 20.933594 6.945312 C 21.945312 6.679688 22.957031 6.546875 23.96875 6.546875 C 24.992188 6.546875 26.003906 6.679688 27.003906 6.945312 C 28.007812 7.207031 28.972656 7.574219 29.90625 8.050781 C 30.847656 8.527344 31.722656 9.089844 32.53125 9.738281 C 33.351562 10.375 34.085938 11.066406 34.734375 11.816406 C 35.28125 11.644531 35.882812 11.558594 36.539062 11.558594 C 37.441406 11.558594 38.265625 11.726562 39.015625 12.058594 C 39.773438 12.382812 40.425781 12.851562 40.972656 13.457031 C 41.53125 14.054688 41.960938 14.761719 42.265625 15.582031 C 42.566406 16.402344 42.71875 17.304688 42.71875 18.285156 C 42.71875 19.296875 42.5625 20.257812 42.25 21.171875 C 41.945312 22.070312 41.546875 22.894531 41.050781 23.644531 C 40.554688 24.394531 40.023438 25.050781 39.457031 25.617188 C 39.515625 26.085938 39.546875 26.585938 39.546875 27.121094 C 39.546875 28.691406 39.359375 30.0625 38.984375 31.238281 C 38.609375 32.402344 38.09375 33.398438 37.4375 34.226562 C 36.789062 35.066406 36.039062 35.761719 35.1875 36.308594 C 34.339844 36.855469 33.425781 37.285156 32.457031 37.597656 C 31.484375 37.914062 30.496094 38.140625 29.496094 38.28125 C 29.058594 38.34375 28.664062 38.453125 28.3125 38.617188 C 27.964844 38.777344 27.636719 38.960938 27.324219 39.164062 C 27.019531 39.363281 26.707031 39.558594 26.382812 39.738281 C 26.058594 39.929688 25.699219 40.089844 25.304688 40.210938 C 24.917969 40.332031 24.472656 40.390625 23.96875 40.390625 Z M 7.601562 18.316406 C 7.601562 19.125 7.742188 19.898438 8.027344 20.640625 C 8.308594 21.367188 8.683594 22.035156 9.148438 22.644531 C 9.363281 22.035156 9.578125 21.507812 9.800781 21.0625 C 10.023438 20.617188 10.210938 20.25 10.363281 19.957031 C 10.515625 19.652344 10.59375 19.425781 10.59375 19.273438 L 10.59375 18.027344 C 10.59375 17.359375 10.6875 16.6875 10.878906 16.007812 C 11.074219 15.328125 11.339844 14.667969 11.683594 14.019531 C 11.644531 14.019531 11.597656 14.019531 11.546875 14.019531 C 11.496094 14.019531 11.445312 14.019531 11.398438 14.019531 C 10.699219 14.019531 10.058594 14.191406 9.484375 14.535156 C 8.917969 14.867188 8.460938 15.355469 8.117188 15.992188 C 7.773438 16.628906 7.601562 17.40625 7.601562 18.316406 Z M 37.359375 19.273438 C 37.359375 19.425781 37.4375 19.652344 37.585938 19.957031 C 37.738281 20.25 37.921875 20.617188 38.132812 21.0625 C 38.355469 21.507812 38.574219 22.035156 38.789062 22.644531 C 39.261719 22.035156 39.636719 21.367188 39.910156 20.640625 C 40.195312 19.898438 40.335938 19.125 40.335938 18.316406 C 40.335938 17.40625 40.164062 16.628906 39.820312 15.992188 C 39.476562 15.355469 39.015625 14.867188 38.4375 14.535156 C 37.871094 14.191406 37.238281 14.019531 36.539062 14.019531 C 36.5 14.019531 36.453125 14.019531 36.402344 14.019531 C 36.351562 14.019531 36.300781 14.019531 36.25 14.019531 C 36.605469 14.667969 36.878906 15.328125 37.070312 16.007812 C 37.265625 16.6875 37.359375 17.359375 37.359375 18.027344 Z M 23.96875 38.328125 C 24.394531 38.328125 24.769531 38.273438 25.09375 38.160156 C 25.414062 38.050781 25.71875 37.902344 26.003906 37.71875 C 26.296875 37.546875 26.59375 37.367188 26.898438 37.171875 C 27.210938 36.980469 27.5625 36.804688 27.945312 36.640625 C 28.339844 36.488281 28.800781 36.375 29.328125 36.292969 L 30.710938 36.082031 C 30.738281 35.96875 30.761719 35.851562 30.769531 35.730469 C 30.78125 35.621094 30.785156 35.5 30.785156 35.367188 C 30.785156 34.851562 30.765625 34.339844 30.726562 33.832031 C 30.683594 33.328125 30.640625 32.855469 30.589844 32.421875 C 30.546875 31.984375 30.527344 31.632812 30.527344 31.359375 C 30.527344 31.003906 30.609375 30.757812 30.769531 30.613281 C 30.941406 30.460938 31.277344 30.316406 31.773438 30.175781 C 31.894531 30.132812 32.097656 30.0625 32.378906 29.960938 C 32.671875 29.859375 33.007812 29.71875 33.382812 29.535156 C 33.765625 29.34375 34.15625 29.105469 34.550781 28.824219 C 34.957031 28.527344 35.324219 28.179688 35.660156 27.773438 C 36.003906 27.359375 36.277344 26.875 36.480469 26.316406 C 36.691406 25.761719 36.796875 25.128906 36.796875 24.417969 C 36.796875 23.871094 36.722656 23.296875 36.570312 22.6875 C 36.429688 22.082031 36.199219 21.488281 35.886719 20.910156 C 35.574219 20.335938 35.171875 19.8125 34.6875 19.347656 C 34.210938 18.882812 33.640625 18.511719 32.972656 18.238281 C 32.304688 17.957031 31.539062 17.816406 30.679688 17.816406 C 29.847656 17.816406 29.105469 17.921875 28.449219 18.132812 C 27.789062 18.335938 27.207031 18.589844 26.703125 18.894531 C 26.207031 19.195312 25.773438 19.5 25.410156 19.804688 C 25.046875 20.105469 24.742188 20.367188 24.5 20.578125 C 24.265625 20.78125 24.089844 20.882812 23.96875 20.882812 C 23.847656 20.882812 23.664062 20.78125 23.421875 20.578125 C 23.1875 20.367188 22.890625 20.105469 22.527344 19.804688 C 22.171875 19.5 21.742188 19.195312 21.234375 18.894531 C 20.730469 18.589844 20.148438 18.335938 19.488281 18.132812 C 18.832031 17.921875 18.09375 17.816406 17.273438 17.816406 C 16.414062 17.816406 15.648438 17.957031 14.980469 18.238281 C 14.3125 18.511719 13.734375 18.882812 13.25 19.347656 C 12.761719 19.8125 12.363281 20.335938 12.050781 20.910156 C 11.746094 21.488281 11.519531 22.082031 11.367188 22.6875 C 11.214844 23.296875 11.136719 23.871094 11.136719 24.417969 C 11.136719 25.128906 11.238281 25.761719 11.441406 26.316406 C 11.65625 26.863281 11.929688 27.34375 12.261719 27.757812 C 12.605469 28.175781 12.976562 28.527344 13.371094 28.824219 C 13.765625 29.105469 14.148438 29.34375 14.523438 29.535156 C 14.910156 29.71875 15.25 29.859375 15.542969 29.960938 C 15.835938 30.0625 16.042969 30.132812 16.164062 30.175781 C 16.671875 30.316406 17.003906 30.460938 17.167969 30.613281 C 17.339844 30.757812 17.425781 31.003906 17.425781 31.359375 C 17.425781 31.632812 17.398438 31.984375 17.347656 32.421875 C 17.308594 32.855469 17.261719 33.328125 17.210938 33.832031 C 17.171875 34.339844 17.152344 34.851562 17.152344 35.367188 C 17.152344 35.5 17.15625 35.621094 17.167969 35.730469 C 17.175781 35.851562 17.195312 35.96875 17.226562 36.082031 L 18.609375 36.292969 C 19.144531 36.375 19.605469 36.488281 19.992188 36.640625 C 20.375 36.804688 20.71875 36.980469 21.023438 37.171875 C 21.335938 37.367188 21.636719 37.546875 21.917969 37.71875 C 22.210938 37.902344 22.519531 38.050781 22.84375 38.160156 C 23.167969 38.273438 23.542969 38.328125 23.96875 38.328125 Z M 17.773438 27.699219 C 17.441406 27.699219 17.128906 27.5625 16.847656 27.289062 C 16.574219 27.015625 16.355469 26.65625 16.195312 26.210938 C 16.03125 25.753906 15.953125 25.257812 15.953125 24.722656 C 15.953125 24.175781 16.03125 23.683594 16.195312 23.25 C 16.355469 22.804688 16.574219 22.449219 16.847656 22.1875 C 17.128906 21.925781 17.441406 21.792969 17.773438 21.792969 C 18.117188 21.792969 18.425781 21.925781 18.699219 22.1875 C 18.984375 22.449219 19.207031 22.804688 19.367188 23.25 C 19.539062 23.683594 19.625 24.175781 19.625 24.722656 C 19.625 25.25 19.539062 25.742188 19.367188 26.195312 C 19.207031 26.652344 18.984375 27.015625 18.699219 27.289062 C 18.425781 27.5625 18.117188 27.699219 17.773438 27.699219 Z M 30.179688 27.699219 C 29.835938 27.699219 29.519531 27.5625 29.238281 27.289062 C 28.964844 27.015625 28.742188 26.652344 28.570312 26.195312 C 28.40625 25.742188 28.324219 25.25 28.324219 24.722656 C 28.324219 24.175781 28.40625 23.683594 28.570312 23.25 C 28.742188 22.804688 28.964844 22.449219 29.238281 22.1875 C 29.519531 21.925781 29.835938 21.792969 30.179688 21.792969 C 30.523438 21.792969 30.832031 21.925781 31.105469 22.1875 C 31.378906 22.449219 31.59375 22.804688 31.757812 23.25 C 31.917969 23.683594 32 24.175781 32 24.722656 C 32 25.257812 31.917969 25.753906 31.757812 26.210938 C 31.59375 26.65625 31.378906 27.015625 31.105469 27.289062 C 30.832031 27.5625 30.523438 27.699219 30.179688 27.699219 Z M 16.878906 23.585938 C 16.988281 23.554688 17.101562 23.523438 17.210938 23.492188 C 17.324219 23.460938 17.511719 23.449219 17.773438 23.449219 C 17.996094 23.449219 18.167969 23.460938 18.289062 23.492188 C 18.421875 23.511719 18.546875 23.542969 18.667969 23.585938 C 18.667969 23.453125 18.632812 23.304688 18.5625 23.144531 C 18.492188 22.980469 18.390625 22.839844 18.257812 22.71875 C 18.136719 22.597656 17.976562 22.535156 17.773438 22.535156 C 17.570312 22.535156 17.402344 22.597656 17.273438 22.71875 C 17.140625 22.832031 17.042969 22.96875 16.984375 23.128906 C 16.921875 23.289062 16.886719 23.441406 16.878906 23.585938 Z M 29.265625 23.585938 C 29.390625 23.542969 29.515625 23.511719 29.648438 23.492188 C 29.777344 23.460938 29.957031 23.449219 30.179688 23.449219 C 30.441406 23.449219 30.625 23.460938 30.726562 23.492188 C 30.835938 23.523438 30.949219 23.554688 31.058594 23.585938 C 31.058594 23.453125 31.023438 23.304688 30.953125 23.144531 C 30.890625 22.980469 30.796875 22.839844 30.664062 22.71875 C 30.542969 22.597656 30.378906 22.535156 30.179688 22.535156 C 29.984375 22.535156 29.824219 22.597656 29.691406 22.71875 C 29.5625 22.839844 29.460938 22.980469 29.390625 23.144531 C 29.316406 23.304688 29.277344 23.453125 29.265625 23.585938 Z M 23.300781 30.113281 C 23.148438 30.183594 22.972656 30.167969 22.769531 30.066406 C 22.578125 29.957031 22.425781 29.789062 22.3125 29.566406 C 22.210938 29.363281 22.160156 29.144531 22.160156 28.914062 C 22.171875 28.679688 22.257812 28.527344 22.417969 28.457031 C 22.550781 28.40625 22.707031 28.429688 22.890625 28.519531 C 23.082031 28.601562 23.238281 28.765625 23.359375 29.019531 C 23.472656 29.242188 23.523438 29.460938 23.511719 29.671875 C 23.511719 29.886719 23.441406 30.03125 23.300781 30.113281 Z M 24.652344 30.113281 C 24.511719 30.03125 24.4375 29.886719 24.4375 29.671875 C 24.4375 29.449219 24.488281 29.226562 24.589844 29.003906 C 24.703125 28.761719 24.855469 28.601562 25.046875 28.519531 C 25.238281 28.429688 25.402344 28.40625 25.53125 28.457031 C 25.695312 28.527344 25.773438 28.679688 25.773438 28.914062 C 25.785156 29.144531 25.738281 29.363281 25.636719 29.566406 C 25.527344 29.789062 25.371094 29.957031 25.167969 30.066406 C 24.976562 30.179688 24.804688 30.195312 24.652344 30.113281 Z M 23.96875 35.699219 C 23.433594 35.699219 22.910156 35.605469 22.40625 35.410156 C 21.910156 35.21875 21.457031 34.976562 21.054688 34.683594 C 20.660156 34.398438 20.34375 34.113281 20.113281 33.816406 C 19.878906 33.515625 19.761719 33.261719 19.761719 33.058594 C 19.761719 32.898438 19.796875 32.789062 19.867188 32.738281 C 19.949219 32.679688 20.066406 32.648438 20.21875 32.648438 C 20.289062 32.648438 20.496094 32.675781 20.839844 32.726562 C 21.195312 32.765625 21.640625 32.8125 22.175781 32.859375 C 22.722656 32.902344 23.320312 32.921875 23.96875 32.921875 C 24.625 32.921875 25.222656 32.902344 25.761719 32.859375 C 26.304688 32.8125 26.753906 32.765625 27.097656 32.726562 C 27.449219 32.675781 27.65625 32.648438 27.71875 32.648438 C 27.878906 32.648438 27.996094 32.679688 28.066406 32.738281 C 28.148438 32.789062 28.1875 32.898438 28.1875 33.058594 C 28.1875 33.261719 28.074219 33.515625 27.839844 33.816406 C 27.605469 34.113281 27.289062 34.398438 26.882812 34.683594 C 26.488281 34.976562 26.039062 35.21875 25.53125 35.410156 C 25.035156 35.605469 24.515625 35.699219 23.96875 35.699219 Z M 23.96875 35.699219 " fill-opacity="1" fill-rule="nonzero"/></g></svg>