<?xml version="1.0" encoding="UTF-8" ?>
<svg version="1.1" width="32" height="32" xmlns="http://www.w3.org/2000/svg" shape-rendering="crispEdges">
<rect x="13" y="0" width="6" height="8" fill="#FFFFFF" />
<rect x="10" y="1" width="3" height="7" fill="#FFFFFF" />
<rect x="19" y="1" width="3" height="7" fill="#FFFFFF" />
<rect x="8" y="2" width="2" height="5" fill="#FFFFFF" />
<rect x="22" y="2" width="2" height="5" fill="#FFFFFF" />
<rect x="7" y="3" width="1" height="9" fill="#FFFFFF" />
<rect x="24" y="3" width="1" height="9" fill="#FFFFFF" />
<rect x="5" y="4" width="2" height="18" fill="#FFFFFF" />
<rect x="25" y="4" width="2" height="24" fill="#FFFFFF" />
<rect x="4" y="5" width="1" height="22" fill="#FFFFFF" />
<rect x="27" y="5" width="1" height="22" fill="#FFFFFF" />
<rect x="3" y="7" width="1" height="18" fill="#FFFFFF" />
<rect x="9" y="7" width="1" height="1" fill="#FFFFFF" />
<rect x="22" y="7" width="1" height="1" fill="#FFFFFF" />
<rect x="28" y="7" width="1" height="18" fill="#FFFFFF" />
<rect x="2" y="8" width="1" height="16" fill="#FFFFFF" />
<rect x="11" y="8" width="2" height="1" fill="#FFFFFF" />
<rect x="19" y="8" width="2" height="1" fill="#FFFFFF" />
<rect x="29" y="8" width="1" height="16" fill="#FFFFFF" />
<rect x="1" y="10" width="1" height="12" fill="#FFFFFF" />
<rect x="30" y="10" width="1" height="12" fill="#FFFFFF" />
<rect x="0" y="13" width="1" height="6" fill="#FFFFFF" />
<rect x="31" y="13" width="1" height="6" fill="#FFFFFF" />
<rect x="7" y="20" width="1" height="3" fill="#FFFFFF" />
<rect x="24" y="20" width="1" height="9" fill="#FFFFFF" />
<rect x="8" y="21" width="1" height="4" fill="#FFFFFF" />
<rect x="23" y="21" width="1" height="9" fill="#FFFFFF" />
<rect x="6" y="22" width="1" height="1" fill="#FFFFFF" />
<rect x="9" y="22" width="1" height="4" fill="#FFFFFF" />
<rect x="22" y="22" width="1" height="8" fill="#FFFFFF" />
<rect x="5" y="23" width="1" height="5" fill="#FFFFFF" />
<rect x="10" y="23" width="3" height="1" fill="#FFFFFF" />
<rect x="19" y="23" width="3" height="1" fill="#FFFFFF" />
<rect x="6" y="24" width="1" height="4" fill="#FFFFFF" />
<rect x="10" y="24" width="2" height="1" fill="#FFFFFF" />
<rect x="20" y="24" width="2" height="7" fill="#FFFFFF" />
<rect x="10" y="25" width="1" height="1" fill="#FFFFFF" />
<rect x="7" y="26" width="1" height="3" fill="#FFFFFF" />
<rect x="8" y="27" width="2" height="3" fill="#FFFFFF" />
<rect x="10" y="28" width="2" height="3" fill="#FFFFFF" />
</svg>