<?xml version="1.0" encoding="UTF-8" ?>
<svg version="1.1" width="64" height="64" xmlns="http://www.w3.org/2000/svg" shape-rendering="crispEdges">
<rect x="6" y="1" width="4" height="14" fill="#FFFFFF" />
<rect x="4" y="2" width="2" height="12" fill="#FFFFFF" />
<rect x="10" y="2" width="2" height="12" fill="#FFFFFF" />
<rect x="3" y="3" width="1" height="10" fill="#FFFFFF" />
<rect x="12" y="3" width="1" height="10" fill="#FFFFFF" />
<rect x="2" y="4" width="1" height="8" fill="#FFFFFF" />
<rect x="13" y="4" width="1" height="8" fill="#FFFFFF" />
<rect x="1" y="6" width="1" height="4" fill="#FFFFFF" />
<rect x="14" y="6" width="1" height="4" fill="#FFFFFF" />
<rect x="45" y="20" width="5" height="12" fill="#FFFFFF" />
<rect x="2" y="21" width="12" height="42" fill="#FFFFFF" />
<rect x="23" y="21" width="13" height="42" fill="#FFFFFF" />
<rect x="41" y="21" width="4" height="11" fill="#FFFFFF" />
<rect x="50" y="21" width="3" height="18" fill="#FFFFFF" />
<rect x="39" y="22" width="2" height="10" fill="#FFFFFF" />
<rect x="53" y="22" width="3" height="41" fill="#FFFFFF" />
<rect x="36" y="24" width="3" height="10" fill="#FFFFFF" />
<rect x="56" y="24" width="2" height="39" fill="#FFFFFF" />
<rect x="58" y="25" width="1" height="38" fill="#FFFFFF" />
<rect x="59" y="26" width="2" height="37" fill="#FFFFFF" />
<rect x="61" y="30" width="1" height="33" fill="#FFFFFF" />
<rect x="39" y="32" width="1" height="1" fill="#FFFFFF" />
<rect x="47" y="32" width="3" height="1" fill="#FFFFFF" />
<rect x="48" y="33" width="2" height="1" fill="#FFFFFF" />
<rect x="62" y="33" width="1" height="30" fill="#FFFFFF" />
<rect x="36" y="34" width="1" height="5" fill="#FFFFFF" />
<rect x="51" y="39" width="2" height="24" fill="#FFFFFF" />
</svg>